<?xml version="1.0" encoding="UTF-8"?>
<svg version="1.1" xmlns="http://www.w3.org/2000/svg" width="512" height="512">
<path d="M0 0 C0.72721489 -0.00581376 1.45442979 -0.01162753 2.2036815 -0.01761746 C4.63572328 -0.03219277 7.06675189 -0.01834452 9.49878597 -0.00457001 C11.2618462 -0.0091799 13.02490258 -0.01553342 14.78795093 -0.02347898 C19.62912849 -0.04018306 24.46999079 -0.03192101 29.31116951 -0.01953411 C34.53345402 -0.01049046 39.75568401 -0.02444991 44.97795773 -0.0354538 C55.20669155 -0.05325052 65.43530803 -0.04939398 75.66404647 -0.03780323 C83.97571889 -0.02877423 92.2873584 -0.0275426 100.59903431 -0.0318985 C102.37263203 -0.0328179 102.37263203 -0.0328179 104.18206001 -0.03375587 C106.5839739 -0.03503475 108.98588777 -0.0363316 111.38780164 -0.03764623 C133.91598824 -0.04905528 156.44410975 -0.03593295 178.97228568 -0.01444477 C198.30975989 0.00342881 217.64713807 0.00032057 236.98461056 -0.01811981 C259.43305558 -0.03951677 281.88144355 -0.04795906 304.32989734 -0.03567076 C306.72273059 -0.03439654 309.11556384 -0.03313906 311.5083971 -0.0318985 C313.27444595 -0.03097285 313.27444595 -0.03097285 315.07617255 -0.03002849 C323.38003736 -0.02657224 331.68386604 -0.03240981 339.98772526 -0.04181671 C350.10416058 -0.05302491 360.22047173 -0.05002134 370.33689279 -0.02869374 C375.50015868 -0.01816785 380.66321738 -0.01408778 385.82648182 -0.02729034 C390.55079151 -0.03918798 395.27470149 -0.03269513 399.99897479 -0.01138014 C401.71016248 -0.00690294 403.42138377 -0.00920531 405.13254995 -0.01888329 C407.45533502 -0.0310152 409.77674398 -0.01860625 412.09945679 0 C413.3905086 0.00064941 414.68156042 0.00129882 416.01173502 0.00196791 C421.23247734 0.75523637 424.27886186 3.19747704 427.79930782 7.00336456 C430.7665519 11.39928171 430.92671215 15.22451267 430.48680782 20.50336456 C428.59092767 26.29934102 425.99475299 29.63464312 420.48680782 32.50336456 C416.57474294 33.877123 412.53180362 33.62937128 408.43993282 33.60102081 C407.66873104 33.59960587 406.89752926 33.59819092 406.10295773 33.59673309 C403.64753444 33.5911499 401.1922034 33.57860052 398.73680782 33.56586456 C397.06884039 33.56084739 395.40087153 33.55628486 393.73290157 33.55219269 C389.65083495 33.54118597 385.56883701 33.52393293 381.48680782 33.50336456 C381.4883267 34.09534901 381.48984559 34.68733346 381.49141049 35.29725683 C381.5810784 70.44540461 381.64963245 105.5935326 381.69106914 140.74177112 C381.69607149 144.96959413 381.70124882 149.1974169 381.70653439 153.42523956 C381.70758363 154.26686196 381.70863287 155.10848435 381.70971391 155.97561045 C381.72708126 169.57229138 381.75859854 183.16890412 381.79541901 196.7655447 C381.83293089 210.73484066 381.85506525 224.70410109 381.8631618 238.67344534 C381.86862842 247.28134028 381.88584354 255.88904239 381.91847369 264.49687792 C381.93974837 270.41340322 381.94597885 276.32982999 381.94081333 282.24639069 C381.93827143 285.65127475 381.94418787 289.05555595 381.96362972 292.46042442 C382.13357842 323.77836675 375.64242268 352.42547605 354.48680782 376.50336456 C353.8242297 377.30902863 353.16165157 378.11469269 352.47899532 378.94477081 C334.58520995 400.04094952 307.70799519 413.03816309 280.48680782 416.50336456 C278.34525031 416.59245544 276.20151385 416.63789693 274.05811214 416.64380646 C272.80948895 416.6495166 271.56086575 416.65522675 270.27440548 416.66110992 C268.90843878 416.66235501 267.54247197 416.66348016 266.17650509 416.66449738 C264.72361788 416.66913194 263.27073187 416.67415745 261.81784725 416.67954254 C257.88342908 416.69261203 253.94902793 416.69910148 250.01459146 416.7035532 C247.54918617 416.70649437 245.08378543 416.71060122 242.61838245 416.71505737 C234.88377708 416.72872152 227.14918222 416.73839196 219.41456562 416.74225926 C210.52591908 416.74672946 201.63742711 416.76423347 192.74882752 416.79325986 C185.85337346 416.81498494 178.95796253 416.82496937 172.06247467 416.82630038 C167.95622924 416.82734123 163.85012931 416.83309281 159.74392033 416.85112 C155.87210191 416.86778785 152.00053543 416.86966716 148.12869358 416.86098099 C146.7211886 416.86022034 145.313669 416.86442184 143.90619946 416.87443924 C130.55409823 416.96376235 117.50713497 415.21334045 104.98680782 410.37836456 C104.20056026 410.08051056 103.41431271 409.78265656 102.60423946 409.47577667 C90.3705895 404.67071118 79.36844453 398.18569151 69.48680782 389.50336456 C68.68114376 388.84078644 67.8754797 388.17820831 67.04540157 387.49555206 C46.33719093 369.93084131 33.02848785 343.28845931 29.48680782 316.50336456 C28.79158235 307.18298107 28.97937944 297.82056531 29.03270626 288.48139191 C29.036076 285.69059062 29.03337278 282.89980261 29.03093624 280.10900116 C29.02885384 274.13585282 29.04124505 268.16288126 29.0638876 262.18977737 C29.09660193 253.55404325 29.10683431 244.9183933 29.11183956 236.28260393 C29.12056201 222.26662432 29.14709409 208.2507386 29.18505001 194.23480988 C29.22184955 180.6316245 29.25012226 167.02846476 29.26708126 153.42523956 C29.26813215 152.58464884 29.26918305 151.74405811 29.27026579 150.87799494 C29.2754865 146.66037435 29.2805412 142.44275359 29.2855134 138.2251327 C29.32688028 103.31780977 29.39724476 68.41059588 29.48680782 33.50336456 C28.49874142 33.51907501 27.51067501 33.53478546 26.4926672 33.55097198 C22.79516035 33.60564309 19.09768858 33.63984848 15.39989376 33.66815948 C13.80543141 33.68316201 12.21100974 33.70357077 10.61669064 33.72968292 C8.31287705 33.76644591 6.00961322 33.78317611 3.70555782 33.79633331 C3.00313961 33.81181717 2.3007214 33.82730103 1.57701778 33.84325409 C-4.01039248 33.84511568 -9.80125196 32.95194279 -14.08240604 29.08654022 C-18.25440488 24.2593284 -18.87629063 20.22441848 -18.78662968 14.07367706 C-18.33949075 9.87057113 -17.13216909 7.86102728 -14.51319218 4.50336456 C-9.46727453 1.07282366 -6.21928379 0.00312796 0 0 Z M61.48680782 33.50336456 C61.44555782 77.37273956 61.40430782 121.24211456 61.36180782 166.44086456 C61.34359982 180.27758087 61.32539181 194.11429718 61.30663204 208.37030792 C61.29994195 220.80549572 61.29994195 220.80549572 61.29592037 233.24068451 C61.29406191 238.76662157 61.28675366 244.29251779 61.2756567 249.8184433 C61.26285319 256.20370732 61.25715282 262.58893242 61.25991792 268.97420934 C61.26111379 272.23491103 61.25818246 275.49550925 61.24837756 278.75619876 C61.16921533 306.37967918 62.57889441 332.56506323 81.48680782 354.50336456 C82.00630001 355.16594269 82.5257922 355.82852081 83.06102657 356.51117706 C95.47550423 371.84140371 115.61551002 381.67481041 135.08098221 383.78452778 C142.32832375 384.41793979 149.505677 384.65170588 156.77855587 384.64862823 C158.5251273 384.65366615 158.5251273 384.65366615 160.30698299 384.65880585 C164.12084199 384.66823225 167.93465669 384.67025478 171.74852657 384.67133331 C173.74784935 384.67373665 175.74717213 384.67614218 177.74649459 384.67879373 C184.02508855 384.68689777 190.30366821 384.68938172 196.58226681 384.6886673 C203.0112595 384.68806772 209.44016796 384.69860498 215.86913937 384.71441096 C221.43053913 384.72758553 226.9919117 384.73284707 232.5533269 384.73221189 C235.85634473 384.73195976 239.15927185 384.73560549 242.46227741 384.74538994 C274.93755636 384.83258612 302.38871174 382.06125814 326.48680782 358.50336456 C348.88014099 334.89753281 349.80649467 305.77866404 349.7138586 274.97187042 C349.7132449 272.28649787 349.71342624 269.60113609 349.71458912 266.91576481 C349.71564442 260.49084867 349.70648871 254.06598929 349.69358646 247.64108765 C349.67908786 240.19580124 349.6775916 232.75054806 349.67601681 225.30524445 C349.66555059 205.6837756 349.63762808 186.06231921 349.61180782 166.44086456 C349.57055782 122.57148956 349.52930782 78.70211456 349.48680782 33.50336456 C254.44680782 33.50336456 159.40680782 33.50336456 61.48680782 33.50336456 Z " fill="#000000" transform="translate(50.51319217681885,79.49663543701172)"/>
<path d="M0 0 C0.83070871 -0.00623996 1.66141742 -0.01247993 2.51729912 -0.01890898 C5.28721123 -0.03480133 8.05623874 -0.02224969 10.82615662 -0.00964355 C12.81743379 -0.0150663 14.80870695 -0.02218982 16.79997253 -0.03088379 C22.19864933 -0.04910061 27.59701996 -0.04205659 32.99570203 -0.02936745 C38.64768622 -0.01923276 44.2996444 -0.0286343 49.95162964 -0.03491211 C59.44159141 -0.04218653 68.93142861 -0.0326055 78.42137146 -0.0135498 C89.39200269 0.00822474 100.36233662 0.00116241 111.33296067 -0.02085543 C120.75479952 -0.03900772 130.17654889 -0.04156875 139.59839958 -0.03110075 C145.22456005 -0.02486572 150.85058077 -0.02403068 156.47673225 -0.0372467 C161.76524398 -0.04880223 167.05337234 -0.04078465 172.34184265 -0.01766968 C174.28245342 -0.01238131 176.22309646 -0.01389854 178.16369438 -0.02272034 C180.81317822 -0.03365417 183.46143421 -0.01993875 186.11083984 0 C186.87845046 -0.00892289 187.64606108 -0.01784577 188.43693262 -0.02703905 C193.60215866 0.04834082 196.50085122 1.27253322 200.4919281 4.50793457 C204.34589259 8.67438266 205.27431141 11.24472095 205.8044281 16.75793457 C205.4166968 21.41071015 204.18804345 24.70360002 201.4919281 28.50793457 C195.6139829 33.28376504 190.93648592 33.65687542 183.58586121 33.64837646 C182.38251172 33.65283315 182.38251172 33.65283315 181.15485215 33.65737987 C178.46348932 33.66605968 175.77217101 33.66757451 173.08079529 33.66906738 C171.15232244 33.67369607 169.22385051 33.6787208 167.29537964 33.68411255 C162.05351133 33.69723386 156.81165584 33.70368102 151.56977367 33.70812321 C148.29453802 33.71105444 145.01930586 33.71515935 141.74407196 33.71962738 C131.49570219 33.73330176 121.24734042 33.74296864 110.99896216 33.74682927 C99.17048588 33.75130965 87.34212517 33.76885693 75.51368403 33.79782987 C66.36960258 33.81944982 57.22555363 33.82953373 48.08144689 33.83087039 C42.62062084 33.83191821 37.15990344 33.83782128 31.69910431 33.85569 C26.56091192 33.87217597 21.42290981 33.87432357 16.28470039 33.86555099 C14.40136009 33.8647809 12.51800954 33.86911971 10.63469505 33.87900925 C8.05821434 33.89174262 5.48240613 33.88584453 2.90592957 33.87542725 C1.79520116 33.88751185 1.79520116 33.88751185 0.6620338 33.89984059 C-4.94357042 33.84704574 -10.77884021 32.97281678 -15.07652307 29.09140134 C-19.2495809 24.26476679 -19.87117098 20.22903121 -19.7815094 14.07824707 C-19.33437047 9.87514113 -18.12704882 7.86559728 -15.5080719 4.50793457 C-10.17901907 0.81319627 -6.4033436 -0.07465092 0 0 Z " fill="#000000" transform="translate(163.50807189941406,15.4920654296875)"/>
</svg>
