<?xml version="1.0" encoding="UTF-8"?>
<svg version="1.1" xmlns="http://www.w3.org/2000/svg" width="512" height="512">
<path d="M0 0 C2.71268504 2.17606931 5.33484946 4.41527867 7.92578125 6.734375 C8.85777344 7.54261719 8.85777344 7.54261719 9.80859375 8.3671875 C28.52906978 25.69451183 37.42465844 51.0485116 39.14453125 75.89453125 C39.62076045 91.59025192 36.15497902 106.43264543 29.92578125 120.734375 C29.52359375 121.66765625 29.12140625 122.6009375 28.70703125 123.5625 C18.30568559 145.9113373 -2.09402387 163.56234998 -24.96875 172.265625 C-49.82145198 181.12542571 -77.46790192 180.44764208 -101.51879883 169.5090332 C-112.83192129 164.0982855 -123.35645085 156.79626532 -132.07421875 147.734375 C-135.61856302 149.07893198 -138.88221068 150.64665844 -142.1875 152.5 C-143.17556641 153.05300781 -144.16363281 153.60601562 -145.18164062 154.17578125 C-146.23931641 154.77261719 -147.29699219 155.36945313 -148.38671875 155.984375 C-149.49466797 156.60699219 -150.60261719 157.22960937 -151.74414062 157.87109375 C-160.22998801 162.65551366 -168.64922692 167.54943435 -177.05004883 172.48144531 C-184.17622314 176.65518963 -191.35811187 180.71838146 -198.57421875 184.734375 C-212.53791941 192.5067687 -226.37919157 200.49695925 -240.07421875 208.734375 C-239.60895671 212.92173332 -239.03651288 216.89973458 -238.01171875 220.984375 C-233.72076384 242.11407721 -239.33512747 262.22762437 -247.07421875 281.734375 C-246.00844604 282.1370459 -246.00844604 282.1370459 -244.92114258 282.54785156 C-241.99356362 283.76798995 -239.29578546 285.17905189 -236.5234375 286.71875 C-235.44497559 287.31695557 -234.36651367 287.91516113 -233.25537109 288.53149414 C-232.09069015 289.18222152 -230.92614279 289.83318803 -229.76171875 290.484375 C-229.16530579 290.81662079 -228.56889282 291.14886658 -227.95440674 291.49118042 C-218.56757953 296.72105552 -209.26454726 302.08403715 -200.0012207 307.5300293 C-192.86893341 311.71451641 -185.6762431 315.77851795 -178.44921875 319.796875 C-166.86773446 326.238114 -155.44512666 332.92927922 -144.07421875 339.734375 C-141.28014816 337.04446933 -138.90150494 334.26981955 -136.57421875 331.171875 C-120.9063222 311.50736158 -98.64140872 300.03036333 -74.07421875 295.734375 C-40.79660114 293.82486121 -15.08939455 301.75188482 10.08984375 323.61328125 C27.12563854 339.75450234 37.6251403 364.51990475 38.92578125 387.734375 C39.00505859 389.10529297 39.00505859 389.10529297 39.0859375 390.50390625 C39.86364416 417.38550597 30.57496623 442.56959643 12.34033203 462.24560547 C-4.58907964 480.06327071 -28.25650884 492.2251749 -53.06640625 492.97265625 C-66.24534853 493.18620836 -78.54508872 493.08121603 -91.07421875 488.734375 C-91.78755371 488.48768066 -92.50088867 488.24098633 -93.23583984 487.98681641 C-107.57954248 482.85934403 -119.06032975 475.28775296 -130.07421875 464.734375 C-130.71101563 464.14914062 -131.3478125 463.56390625 -132.00390625 462.9609375 C-147.75517662 448.04973488 -158.53008732 423.87392418 -159.14697266 402.17529297 C-159.23436851 396.02704701 -159.18652723 389.8819682 -159.07421875 383.734375 C-160.605625 382.89519531 -160.605625 382.89519531 -162.16796875 382.0390625 C-172.07079768 376.58763406 -181.8688797 370.97407309 -191.62304688 365.26123047 C-199.0894932 360.88859605 -206.57567552 356.55171807 -214.07421875 352.234375 C-221.46572374 347.97626124 -228.85176883 343.70933267 -236.21948242 339.41015625 C-238.18970208 338.26079419 -240.16119998 337.11362019 -242.1340332 335.96875 C-247.36888437 332.9254242 -252.56758927 329.83346981 -257.734375 326.67578125 C-258.82669434 326.01650635 -259.91901367 325.35723145 -261.04443359 324.67797852 C-263.14628742 323.40822147 -265.23955216 322.1241065 -267.32275391 320.82397461 C-268.26554199 320.25815674 -269.20833008 319.69233887 -270.1796875 319.109375 C-271.00621826 318.60148437 -271.83274902 318.09359375 -272.68432617 317.5703125 C-275.0922239 316.4718309 -275.0922239 316.4718309 -277.67041016 317.46386719 C-280.25894965 318.83201258 -282.77978148 320.29615598 -285.2878418 321.80639648 C-307.95639063 335.33462755 -334.28269861 339.34210284 -360.00830078 333.2734375 C-378.37598937 328.48073407 -393.89663173 319.28637718 -407.07421875 305.734375 C-407.90695312 304.8990625 -408.7396875 304.06375 -409.59765625 303.203125 C-424.74807658 287.27708589 -434.2499477 264.77466603 -435.07421875 242.734375 C-435.11417969 241.82816406 -435.15414063 240.92195313 -435.1953125 239.98828125 C-435.77229757 214.43123665 -427.60703524 189.56271981 -410.07421875 170.734375 C-409.19636719 169.78820312 -408.31851563 168.84203125 -407.4140625 167.8671875 C-389.29365813 148.82567862 -364.83585816 138.20704129 -338.62011719 137.45092773 C-312.57603205 137.12136094 -288.04558056 146.08173388 -268.76171875 163.8671875 C-267.16227435 165.46018253 -265.59625538 167.06763771 -264.07421875 168.734375 C-254.06250279 163.56807285 -244.31970598 157.99990453 -234.60742188 152.29248047 C-227.31226055 148.01510984 -219.96441155 143.84511194 -212.57421875 139.734375 C-204.23168069 135.08986743 -195.94067185 130.36859415 -187.69921875 125.546875 C-186.71614746 124.97179199 -185.73307617 124.39670898 -184.72021484 123.80419922 C-180.88322287 121.55704679 -177.04800352 119.3069059 -173.21484375 117.05322266 C-170.54513983 115.48486482 -167.87245035 113.92170984 -165.19921875 112.359375 C-164.40209473 111.88862549 -163.6049707 111.41787598 -162.78369141 110.93286133 C-157.3010931 107.734375 -157.3010931 107.734375 -155.07421875 107.734375 C-155.38166016 106.55681641 -155.38166016 106.55681641 -155.6953125 105.35546875 C-155.96472656 104.30488281 -156.23414063 103.25429687 -156.51171875 102.171875 C-156.77855469 101.13933594 -157.04539062 100.10679688 -157.3203125 99.04296875 C-162.98188121 74.19660244 -157.57486932 49.18544849 -145.13671875 27.359375 C-132.0302897 6.69950395 -114.10249689 -7.47070183 -91.07421875 -15.265625 C-90.42324219 -15.49008301 -89.77226562 -15.71454102 -89.1015625 -15.94580078 C-59.15370882 -25.79985466 -25.00176846 -18.42569975 0 0 Z " fill="#000000" transform="translate(454.07421875,19.265625)"/>
</svg>
