<?xml version="1.0" encoding="UTF-8"?>
<svg version="1.1" xmlns="http://www.w3.org/2000/svg" width="128" height="128">
<path d="M0 0 C1.0094165 -0.00845947 2.01883301 -0.01691895 3.05883789 -0.02563477 C4.16026123 -0.01956207 5.26168457 -0.01348938 6.39648438 -0.00723267 C7.56107178 -0.01248962 8.72565918 -0.01774658 9.92553711 -0.02316284 C13.78057206 -0.03638195 17.63519512 -0.02761759 21.49023438 -0.01748657 C24.16536983 -0.01950675 26.8404927 -0.02241297 29.515625 -0.02618408 C35.12439447 -0.03164051 40.7330454 -0.02445305 46.34179688 -0.01016235 C52.82433828 0.00616406 59.30659662 0.00087546 65.78913116 -0.01564157 C71.35698111 -0.02925972 76.92474589 -0.03117453 82.49260712 -0.02332556 C85.81714812 -0.0186508 89.14152704 -0.01919817 92.46606445 -0.02793503 C96.17223363 -0.03553687 99.87785602 -0.02396216 103.58398438 -0.00723267 C104.68540771 -0.01330536 105.78683105 -0.01937805 106.92163086 -0.02563477 C107.93104736 -0.01717529 108.94046387 -0.00871582 109.98046875 0 C111.29452698 0.00169662 111.29452698 0.00169662 112.63513184 0.00342751 C115.5510617 0.47085166 116.91380564 1.29263012 118.99023438 3.38095093 C119.48801231 5.25659943 119.48801231 5.25659943 119.48471069 7.40402222 C119.49309967 8.21998367 119.50148865 9.03594513 119.51013184 9.87663269 C119.49889282 10.76815536 119.48765381 11.65967804 119.47607422 12.57821655 C119.47987091 13.5199321 119.4836676 14.46164764 119.48757935 15.43190002 C119.49500027 18.55067041 119.47358051 21.66851307 119.45117188 24.78720093 C119.44878827 26.9504892 119.44788195 29.11377957 119.44839478 31.27706909 C119.44526412 35.81329282 119.42867814 40.34920109 119.40185547 44.88534546 C119.36787539 50.70641834 119.36022674 56.52714431 119.36174583 62.34830475 C119.36120254 66.81606369 119.3502418 71.28374646 119.33574295 75.7514801 C119.32936865 77.89813154 119.32543458 80.04479163 119.32395554 82.19145203 C119.31962928 85.18901333 119.30214265 88.18620347 119.28076172 91.1836853 C119.28166809 92.07520798 119.28257446 92.96673065 119.2835083 93.88526917 C119.27497833 94.70123062 119.26644836 95.51719208 119.25765991 96.35787964 C119.25430822 97.06652916 119.25095654 97.77517868 119.24750328 98.50530243 C118.99023438 100.38095093 118.99023438 100.38095093 116.99023438 103.38095093 C114.19637292 104.40072697 111.50439968 104.52322013 108.54882812 104.59188843 C107.71802734 104.6202478 106.88722656 104.64860718 106.03125 104.67782593 C104.29188636 104.73001989 102.55226623 104.77425795 100.8125 104.81063843 C99.98298828 104.84157593 99.15347656 104.87251343 98.29882812 104.90438843 C97.16658813 104.93411743 97.16658813 104.93411743 96.01147461 104.96444702 C93.89111172 105.17635929 93.89111172 105.17635929 92.79530334 106.88272095 C90.02674048 109.18066299 87.63709554 108.76242926 84.08789062 108.76913452 C83.39001434 108.77439148 82.69213806 108.77964844 81.97311401 108.7850647 C79.66609317 108.79826939 77.35976224 108.78952548 75.05273438 108.77938843 C73.44994982 108.78140904 71.84716617 108.78432037 70.24438477 108.78808594 C66.88516487 108.79250991 63.52618427 108.78607605 60.16699219 108.77206421 C55.85916598 108.75497208 51.55190048 108.7648129 47.24409485 108.7827816 C43.9344052 108.79361759 40.62484867 108.790174 37.31515503 108.78239822 C35.72671441 108.78039569 34.13826175 108.78285736 32.54983521 108.78983688 C30.33042342 108.79744856 28.11192203 108.78585238 25.89257812 108.76913452 C24.62921631 108.76674774 23.36585449 108.76436096 22.06420898 108.76190186 C18.74334606 108.3503546 18.00572386 107.9144155 15.99023438 105.38095093 C13.95489556 104.91237417 13.95489556 104.91237417 11.71679688 104.93954468 C10.89179688 104.9131189 10.06679688 104.88669312 9.21679688 104.85946655 C7.92902344 104.83916382 7.92902344 104.83916382 6.61523438 104.81845093 C-4.04476126 104.60040556 -4.04476126 104.60040556 -8.00976562 102.38095093 C-9.71733042 98.96582133 -9.17547671 95.05586423 -9.18676758 91.29721069 C-9.19333878 90.35564117 -9.19990997 89.41407166 -9.2066803 88.44396973 C-9.22643385 85.32009814 -9.23807872 82.1962746 -9.24804688 79.07235718 C-9.2521224 78.00777723 -9.25619793 76.94319729 -9.26039696 75.84635735 C-9.28126362 70.21490547 -9.29556439 64.58347804 -9.30493164 58.95199585 C-9.31601461 53.12296219 -9.35043469 47.29430835 -9.39010334 41.46540928 C-9.41618762 36.99338549 -9.42461604 32.52145346 -9.42821312 28.04936028 C-9.43309806 25.8998857 -9.4447658 23.75041573 -9.46325111 21.60101509 C-9.4874749 18.59839434 -9.48670859 15.59677325 -9.47973633 12.59408569 C-9.49254639 11.70099197 -9.50535645 10.80789825 -9.51855469 9.88774109 C-9.51161087 9.07033447 -9.50466705 8.25292786 -9.49751282 7.41075134 C-9.49990117 6.700803 -9.50228952 5.99085466 -9.50475025 5.25939274 C-9.00976562 3.38095093 -9.00976562 3.38095093 -7.29239178 1.65289783 C-4.62776732 0.16809016 -3.03680246 0.0039209 0 0 Z M-4.00976562 6.38095093 C-4.10498981 9.24186911 -4.13529888 12.07858713 -4.12329102 14.93978882 C-4.12343704 15.83726334 -4.12358307 16.73473785 -4.12373352 17.65940857 C-4.12303404 20.64083227 -4.11524004 23.62219433 -4.10742188 26.60360718 C-4.10555782 28.66484035 -4.10413386 30.72607397 -4.10313416 32.78730774 C-4.099308 38.22399103 -4.08947688 43.66064778 -4.07843018 49.09732056 C-4.06821815 54.64042807 -4.06363698 60.18353985 -4.05859375 65.72665405 C-4.0478547 76.61143324 -4.03025712 87.49618573 -4.00976562 98.38095093 C2.59023438 98.38095093 9.19023438 98.38095093 15.99023438 98.38095093 C16.48523437 96.89595093 16.48523437 96.89595093 16.99023438 95.38095093 C42.07023437 95.38095093 67.15023437 95.38095093 92.99023438 95.38095093 C93.32023437 96.37095093 93.65023437 97.36095093 93.99023438 98.38095093 C100.59023437 98.38095093 107.19023438 98.38095093 113.99023438 98.38095093 C114.01278405 86.40291198 114.03114868 74.42488703 114.04204655 62.4468317 C114.04727571 56.88555681 114.05437396 51.32429714 114.06567383 45.76303101 C114.07650153 40.40087674 114.08251096 35.03873715 114.08511162 29.6765728 C114.08696608 27.62594814 114.09058709 25.57532433 114.09596443 23.52470589 C114.1031733 20.6630489 114.10422538 17.80145336 114.10375977 14.93978882 C114.10915268 13.65477982 114.10915268 13.65477982 114.11465454 12.34381104 C114.47816603 8.55585229 114.47816603 8.55585229 112.99023438 5.38095093 C111.48704733 5.28303398 109.97927305 5.25463294 108.47290039 5.25396729 C107.49692902 5.25114746 106.52095764 5.24832764 105.51541138 5.24542236 C104.43589203 5.24744659 103.35637268 5.24947083 102.24414062 5.2515564 C100.54920975 5.24892792 100.54920975 5.24892792 98.82003784 5.24624634 C95.06425465 5.24182511 91.30851809 5.24476677 87.55273438 5.24813843 C84.95581045 5.24746547 82.35888659 5.24649551 79.76196289 5.24523926 C74.31102849 5.24376192 68.8601118 5.24582341 63.40917969 5.25057983 C57.09884208 5.25602243 50.78853678 5.25425976 44.47819996 5.24875343 C38.41855737 5.24367661 32.35893065 5.24420384 26.29928589 5.24713516 C23.71556595 5.2478047 21.1318452 5.24697508 18.54812622 5.24465561 C14.94417095 5.24213068 11.34027868 5.24596743 7.73632812 5.2515564 C6.65680878 5.24953217 5.57728943 5.24750793 4.46505737 5.24542236 C3.00110031 5.2496521 3.00110031 5.2496521 1.50756836 5.25396729 C0.65436508 5.25434431 -0.1988382 5.25472134 -1.07789612 5.25510979 C-3.01681389 5.16811648 -3.01681389 5.16811648 -4.00976562 6.38095093 Z M20.99023438 99.38095093 C20.99023438 100.70095093 20.99023438 102.02095093 20.99023438 103.38095093 C43.43023437 103.38095093 65.87023437 103.38095093 88.99023438 103.38095093 C88.99023438 102.06095093 88.99023438 100.74095093 88.99023438 99.38095093 C66.55023438 99.38095093 44.11023437 99.38095093 20.99023438 99.38095093 Z " fill="#FFFFFF" transform="translate(9.009765625,9.619049072265625)"/>
<path d="M0 0 C6.78271478 5.5340352 9.662754 13.61075823 12.65551758 21.54003906 C14.64607593 26.58305607 16.51001124 29.80681974 20.64575195 33.34277344 C20.97575195 33.67277344 21.30575195 34.00277344 21.64575195 34.34277344 C26.48609912 34.506853 30.87833822 34.29625618 35.64575195 33.34277344 C36.14075195 35.32277344 36.14075195 35.32277344 36.64575195 37.34277344 C32.58748516 40.25965269 28.62938873 41.4946557 23.64575195 41.34277344 C17.28213292 39.40133034 13.44022479 36.50179332 10.14575195 30.70214844 C7.67456338 25.88333072 5.48525095 21.03721431 3.58325195 15.96777344 C1.62157435 10.90485448 -0.77501805 7.29943068 -5.16674805 3.96777344 C-8.61287548 2.9831656 -11.84738907 2.65952855 -15.35424805 3.34277344 C-19.14506981 6.22709434 -20.87735708 8.88366028 -22.35424805 13.34277344 C-22.60769764 15.43377522 -22.77690442 17.53594559 -22.8815918 19.63964844 C-22.9518457 20.84621094 -23.02209961 22.05277344 -23.09448242 23.29589844 C-23.22517281 25.81136499 -23.35281615 28.32699185 -23.47729492 30.84277344 C-24.06388599 40.77782943 -25.01502464 49.17422964 -32.35424805 56.34277344 C-37.94517382 60.53596777 -44.67917636 60.04541256 -51.35424805 59.34277344 C-57.55046141 57.83640066 -60.90027322 54.20476765 -64.16674805 48.87011719 C-66.06137371 44.83780533 -66.82142191 40.74318241 -67.35424805 36.34277344 C-64.87924805 35.84777344 -64.87924805 35.84777344 -62.35424805 35.34277344 C-62.12350586 36.07882813 -61.89276367 36.81488281 -61.6550293 37.57324219 C-59.41871689 44.26450105 -57.36681692 48.43712011 -51.54174805 52.65527344 C-46.82047155 54.1391032 -42.70432437 53.78414454 -38.10424805 52.28027344 C-33.56830485 49.08449528 -31.71719647 45.00017832 -30.5612793 39.72167969 C-30.43108398 38.46226563 -30.30088867 37.20285156 -30.16674805 35.90527344 C-30.09053223 35.22005615 -30.01431641 34.53483887 -29.93579102 33.82885742 C-29.48363107 29.54408037 -29.24523127 25.26851649 -29.06933594 20.96484375 C-28.42584091 6.25339635 -28.42584091 6.25339635 -22.67456055 0.72949219 C-15.5667517 -4.68525489 -7.65675643 -4.84722516 0 0 Z " fill="#FFFFFF" transform="translate(79.354248046875,32.6572265625)"/>
<path d="M0 0 C0.67546875 0.13792969 1.3509375 0.27585937 2.046875 0.41796875 C1.25167554 6.46252837 -2.0687306 9.16281635 -6.265625 13.29296875 C-6.94302734 13.99421875 -7.62042969 14.69546875 -8.31835938 15.41796875 C-8.97771484 16.07539062 -9.63707031 16.7328125 -10.31640625 17.41015625 C-10.91751221 18.0119873 -11.51861816 18.61381836 -12.13793945 19.23388672 C-13.953125 20.41796875 -13.953125 20.41796875 -16.18041992 20.10595703 C-17.05790894 19.76540283 -17.05790894 19.76540283 -17.953125 19.41796875 C-17.7370679 13.76807566 -13.99512329 10.83222011 -10.203125 7.10546875 C-9.58179688 6.46029297 -8.96046875 5.81511719 -8.3203125 5.15039062 C-3.67542138 0.52019853 -3.67542138 0.52019853 0 0 Z " fill="#FFFFFF" transform="translate(25.953125,18.58203125)"/>
<path d="M0 0 C1.32 0 2.64 0 4 0 C4.125 2.375 4.125 2.375 4 5 C3.34 5.66 2.68 6.32 2 7 C-0.625 6.625 -0.625 6.625 -3 6 C-2.42655063 3.13275314 -2.1385485 2.1385485 0 0 Z " fill="#FFFFFF" transform="translate(11,19)"/>
</svg>
